<svg width="60" height="60" viewBox="0 0 60 60" fill="none" xmlns="http://www.w3.org/2000/svg">
<rect x="0.787003" y="0.634567" width="59.1942" height="59.1942" rx="6" fill="#1E1E1E"/>
<path d="M16.1989 39.0145C14.3979 38.0209 14.0253 36.5669 14.0613 34.6234C14.1904 27.6567 14.1119 20.6861 14.1119 13.7169C14.1119 13.3558 14.1119 12.9946 14.1119 12.54C14.4743 12.521 14.7896 12.4901 15.1049 12.4901C39.696 12.4878 8.32397 12.4848 32.915 12.5109C33.4178 12.5114 34.0153 12.7356 34.4079 13.0538C38.3226 16.2268 42.2105 19.4331 46.0805 22.6604C46.3873 22.9162 46.6818 23.3986 46.6834 23.7769C46.7176 31.7083 46.7088 39.6399 46.7065 47.5715C46.7065 47.6664 46.682 47.7612 46.6526 47.9745C46.3044 47.9745 45.9532 47.9745 45.6021 47.9745C21.0773 47.9745 52.5157 47.9787 27.991 47.9484C27.4294 47.9477 26.7655 47.6847 26.3233 47.3282C22.9422 44.6024 19.6044 41.8229 16.1989 39.0145ZM17.5647 20.7589C17.5647 25.4379 17.5744 30.117 17.5531 34.796C17.5503 35.405 17.6908 35.8234 18.1917 36.2299C21.3579 38.7992 24.4779 41.4256 27.6515 43.9856C28.0663 44.3202 28.7007 44.5464 29.2338 44.547C52.2308 44.5744 19.2647 44.5706 42.2618 44.5705C42.584 44.5705 42.9063 44.5705 43.2623 44.5705C43.2871 44.3573 43.3143 44.232 43.3144 44.1067C43.3169 37.868 43.3262 31.6292 43.2937 25.3906C43.2919 25.0392 43.0274 24.5907 42.7453 24.3542C39.6207 21.7348 36.4842 19.1285 33.306 16.5748C32.8407 16.2009 32.1408 15.9305 31.5491 15.9297C8.61842 15.8976 41.6509 15.9024 18.7202 15.9024C18.3644 15.9024 18.0086 15.9024 17.5647 15.9024C17.5647 17.5211 17.5647 19.0404 17.5647 20.7589Z" fill="#EDDE4B"/>
</svg>